<?xml version="1.0" encoding="utf-8"?>
<svg version="1.1" xmlns:xlink="http://www.w3.org/1999/xlink" width="614px" height="614px" xmlns="http://www.w3.org/2000/svg">
  <g transform="matrix(1 0 0 1 -796 -185 )">
    <path d="M 1103 185  C 1274.92 185  1410 320.08  1410 492  C 1410 663.9200000000001  1274.92 799  1103 799  C 931.0799999999999 799  796 663.9200000000001  796 492  C 796 320.08  931.0799999999999 185  1103 185  Z " fill-rule="nonzero" fill="#edf0ff" stroke="none" />
    <path d="M 1103 185.5  C 1274.64 185.5  1409.5 320.36  1409.5 492  C 1409.5 663.6400000000001  1274.64 798.5  1103 798.5  C 931.36 798.5  796.5 663.6400000000001  796.5 492  C 796.5 320.36  931.36 185.5  1103 185.5  Z " stroke-width="1" stroke="#edf0ff" fill="none" />
  </g>
</svg>